<svg width="60" height="32" viewBox="0 0 60 32" fill="none" xmlns="http://www.w3.org/2000/svg">
<rect width="60" height="32" rx="8" fill="#EDF5FE"/>
<path d="M20.4328 21.18C19.5688 21.18 18.8228 20.992 18.1948 20.616C17.5708 20.24 17.0888 19.714 16.7488 19.038C16.4128 18.362 16.2448 17.576 16.2448 16.68C16.2448 15.784 16.4128 14.998 16.7488 14.322C17.0888 13.646 17.5708 13.12 18.1948 12.744C18.8228 12.368 19.5688 12.18 20.4328 12.18C21.4248 12.18 22.2568 12.426 22.9288 12.918C23.6048 13.41 24.0808 14.076 24.3568 14.916L22.7128 15.372C22.5528 14.848 22.2828 14.442 21.9028 14.154C21.5228 13.862 21.0328 13.716 20.4328 13.716C19.8848 13.716 19.4268 13.838 19.0588 14.082C18.6948 14.326 18.4208 14.67 18.2368 15.114C18.0528 15.558 17.9608 16.08 17.9608 16.68C17.9608 17.28 18.0528 17.802 18.2368 18.246C18.4208 18.69 18.6948 19.034 19.0588 19.278C19.4268 19.522 19.8848 19.644 20.4328 19.644C21.0328 19.644 21.5228 19.498 21.9028 19.206C22.2828 18.914 22.5528 18.508 22.7128 17.988L24.3568 18.444C24.0808 19.284 23.6048 19.95 22.9288 20.442C22.2568 20.934 21.4248 21.18 20.4328 21.18ZM29.3859 21.18C28.5219 21.18 27.7759 20.992 27.1479 20.616C26.5239 20.24 26.0419 19.714 25.7019 19.038C25.3659 18.362 25.1979 17.576 25.1979 16.68C25.1979 15.784 25.3659 14.998 25.7019 14.322C26.0419 13.646 26.5239 13.12 27.1479 12.744C27.7759 12.368 28.5219 12.18 29.3859 12.18C30.3779 12.18 31.2099 12.426 31.8819 12.918C32.5579 13.41 33.0339 14.076 33.3099 14.916L31.6659 15.372C31.5059 14.848 31.2359 14.442 30.8559 14.154C30.4759 13.862 29.9859 13.716 29.3859 13.716C28.8379 13.716 28.3799 13.838 28.0119 14.082C27.6479 14.326 27.3739 14.67 27.1899 15.114C27.0059 15.558 26.9139 16.08 26.9139 16.68C26.9139 17.28 27.0059 17.802 27.1899 18.246C27.3739 18.69 27.6479 19.034 28.0119 19.278C28.3799 19.522 28.8379 19.644 29.3859 19.644C29.9859 19.644 30.4759 19.498 30.8559 19.206C31.2359 18.914 31.5059 18.508 31.6659 17.988L33.3099 18.444C33.0339 19.284 32.5579 19.95 31.8819 20.442C31.2099 20.934 30.3779 21.18 29.3859 21.18ZM34.631 21V12.36H36.095L38.951 18.096L41.807 12.36H43.271V21H41.747V15.84L39.239 21H38.663L36.155 15.84V21H34.631Z" fill="#9F1FF6"/>
</svg>
